<?xml version="1.0" encoding="UTF-8" standalone="no"?>
<!-- Generator: Adobe Illustrator 19.1.0, SVG Export Plug-In . SVG Version: 6.00 Build 0)  -->

<svg
   xmlns:dc="http://purl.org/dc/elements/1.1/"
   xmlns:cc="http://creativecommons.org/ns#"
   xmlns:rdf="http://www.w3.org/1999/02/22-rdf-syntax-ns#"
   xmlns:svg="http://www.w3.org/2000/svg"
   xmlns="http://www.w3.org/2000/svg"
   xmlns:sodipodi="http://sodipodi.sourceforge.net/DTD/sodipodi-0.dtd"
   xmlns:inkscape="http://www.inkscape.org/namespaces/inkscape"
   version="1.1"
   id="Capa_1"
   x="0px"
   y="0px"
   viewBox="0 0 199.99999 199.99999"
   xml:space="preserve"
   inkscape:version="0.91 r13725"
   sodipodi:docname="rocket.svg"
   width="200"
   height="200"><metadata
     id="metadata85"><rdf:RDF><cc:Work
         rdf:about=""><dc:format>image/svg+xml</dc:format><dc:type
           rdf:resource="http://purl.org/dc/dcmitype/StillImage" /><dc:title></dc:title></cc:Work></rdf:RDF></metadata><defs
     id="defs83" /><sodipodi:namedview
     pagecolor="#ffffff"
     bordercolor="#666666"
     borderopacity="1"
     objecttolerance="10"
     gridtolerance="10"
     guidetolerance="10"
     inkscape:pageopacity="0"
     inkscape:pageshadow="2"
     inkscape:window-width="1257"
     inkscape:window-height="675"
     id="namedview81"
     showgrid="false"
     inkscape:zoom="0.5"
     inkscape:cx="136.00101"
     inkscape:cy="136.00101"
     inkscape:window-x="0"
     inkscape:window-y="23"
     inkscape:window-maximized="0"
     inkscape:current-layer="Capa_1" /><g
     id="g51"
     transform="translate(0,-312.00202)" /><g
     id="g53"
     transform="translate(0,-312.00202)" /><g
     id="g55"
     transform="translate(0,-312.00202)" /><g
     id="g57"
     transform="translate(0,-312.00202)" /><g
     id="g59"
     transform="translate(0,-312.00202)" /><g
     id="g61"
     transform="translate(0,-312.00202)" /><g
     id="g63"
     transform="translate(0,-312.00202)" /><g
     id="g65"
     transform="translate(0,-312.00202)" /><g
     id="g67"
     transform="translate(0,-312.00202)" /><g
     id="g69"
     transform="translate(0,-312.00202)" /><g
     id="g71"
     transform="translate(0,-312.00202)" /><g
     id="g73"
     transform="translate(0,-312.00202)" /><g
     id="g75"
     transform="translate(0,-312.00202)" /><g
     id="g77"
     transform="translate(0,-312.00202)" /><g
     id="g79"
     transform="translate(0,-312.00202)" /><g
     id="g4261"
     transform="matrix(0.53738772,0,0,0.53738772,-59.470028,-191.40331)" /><g
     id="g4263"
     transform="matrix(0.53738772,0,0,0.53738772,-59.470028,-191.40331)" /><g
     id="g4265"
     transform="matrix(0.53738772,0,0,0.53738772,-59.470028,-191.40331)" /><g
     id="g4267"
     transform="matrix(0.53738772,0,0,0.53738772,-59.470028,-191.40331)" /><g
     id="g4269"
     transform="matrix(0.53738772,0,0,0.53738772,-59.470028,-191.40331)" /><g
     id="g4271"
     transform="matrix(0.53738772,0,0,0.53738772,-59.470028,-191.40331)" /><g
     id="g4273"
     transform="matrix(0.53738772,0,0,0.53738772,-59.470028,-191.40331)" /><g
     id="g4275"
     transform="matrix(0.53738772,0,0,0.53738772,-59.470028,-191.40331)" /><g
     id="g4277"
     transform="matrix(0.53738772,0,0,0.53738772,-59.470028,-191.40331)" /><g
     id="g4279"
     transform="matrix(0.53738772,0,0,0.53738772,-59.470028,-191.40331)" /><g
     id="g4281"
     transform="matrix(0.53738772,0,0,0.53738772,-59.470028,-191.40331)" /><g
     id="g4283"
     transform="matrix(0.53738772,0,0,0.53738772,-59.470028,-191.40331)" /><g
     id="g4285"
     transform="matrix(0.53738772,0,0,0.53738772,-59.470028,-191.40331)" /><g
     id="g4287"
     transform="matrix(0.53738772,0,0,0.53738772,-59.470028,-191.40331)" /><g
     id="g4289"
     transform="matrix(0.53738772,0,0,0.53738772,-59.470028,-191.40331)" /><g
     transform="matrix(0.53738772,0,0,0.53738772,297.96786,-191.40331)"
     id="g4339" /><g
     transform="matrix(0.53738772,0,0,0.53738772,297.96786,-191.40331)"
     id="g4341" /><g
     transform="matrix(0.53738772,0,0,0.53738772,297.96786,-191.40331)"
     id="g4343" /><g
     transform="matrix(0.53738772,0,0,0.53738772,297.96786,-191.40331)"
     id="g4345" /><g
     transform="matrix(0.53738772,0,0,0.53738772,297.96786,-191.40331)"
     id="g4347" /><g
     transform="matrix(0.53738772,0,0,0.53738772,297.96786,-191.40331)"
     id="g4349" /><g
     transform="matrix(0.53738772,0,0,0.53738772,297.96786,-191.40331)"
     id="g4351" /><g
     transform="matrix(0.53738772,0,0,0.53738772,297.96786,-191.40331)"
     id="g4353" /><g
     transform="matrix(0.53738772,0,0,0.53738772,297.96786,-191.40331)"
     id="g4355" /><g
     transform="matrix(0.53738772,0,0,0.53738772,297.96786,-191.40331)"
     id="g4357" /><g
     transform="matrix(0.53738772,0,0,0.53738772,297.96786,-191.40331)"
     id="g4359" /><g
     transform="matrix(0.53738772,0,0,0.53738772,297.96786,-191.40331)"
     id="g4361" /><g
     transform="matrix(0.53738772,0,0,0.53738772,297.96786,-191.40331)"
     id="g4363" /><g
     transform="matrix(0.53738772,0,0,0.53738772,297.96786,-191.40331)"
     id="g4365" /><g
     transform="matrix(0.53738772,0,0,0.53738772,297.96786,-191.40331)"
     id="g4367" /><g
     id="g4369"
     transform="translate(-3.3770434,7.4559145e-6)"><g
       transform="matrix(0.20991626,0,0,0.20991626,-20.173452,47.108672)"
       id="g4213"><g
         id="g4215"><g
           id="g4217"><path
             inkscape:connector-curvature="0"
             style="fill:#ff4f19"
             d="m 317.024,306.849 c 0.352,-3.383 2.797,-6.18 6.109,-6.965 3.305,-0.781 6.758,0.602 8.594,3.469 l 49.016,76.629 c 7.367,11.57 11.258,24.937 11.258,38.656 l 0,85.363 c 0,3.383 -2.125,6.398 -5.312,7.535 -0.875,0.312 -1.789,0.465 -2.688,0.465 -2.352,0 -4.641,-1.039 -6.195,-2.934 l -70.32,-85.949 c -1.344,-1.648 -1.977,-3.766 -1.766,-5.883 l 11.304,-110.386 z"
             id="path4219" /></g><g
           id="g4221"><path
             inkscape:connector-curvature="0"
             style="fill:#e9001e"
             d="m 194.977,306.849 c -0.352,-3.383 -2.797,-6.18 -6.109,-6.965 -3.305,-0.781 -6.758,0.602 -8.594,3.469 l -49.016,76.629 C 123.891,391.552 120,404.919 120,418.638 l 0,85.363 c 0,3.383 2.125,6.398 5.312,7.535 0.875,0.312 1.789,0.465 2.688,0.465 2.352,0 4.641,-1.039 6.195,-2.934 l 70.32,-85.949 c 1.344,-1.648 1.977,-3.766 1.766,-5.883 L 194.977,306.849 Z"
             id="path4223" /></g><g
           id="g4225"><path
             inkscape:connector-curvature="0"
             style="fill:#ffd200"
             d="m 260.118,1.143 c -2.531,-1.523 -5.703,-1.523 -8.234,0 -3.422,2.055 -83.883,51.562 -83.883,158.859 0,43.324 10.766,158.594 25.047,268.125 2.07,15.891 15.703,27.875 31.695,27.875 l 62.516,0 c 15.992,0 29.625,-11.984 31.695,-27.875 C 333.235,318.596 344.001,203.326 344.001,160.002 344.001,52.705 263.54,3.197 260.118,1.143 Z"
             id="path4227" /></g><g
           id="g4229"><path
             inkscape:connector-curvature="0"
             style="fill:#ff9600"
             d="m 256.001,456.002 -31.258,0 c -15.992,0 -29.625,-11.984 -31.695,-27.875 -14.281,-109.531 -25.047,-224.801 -25.047,-268.125 0,-107.297 80.461,-156.805 83.883,-158.859 1.261,-0.759 2.682,-1.138 4.103,-1.141 l 0.015,0 0,456 z"
             id="path4231" /></g><g
           id="g4233"><circle
             style="fill:#53dcff"
             cx="256.00101"
             cy="168.002"
             r="48"
             id="circle4235" /></g><g
           id="g4237"><g
             id="g4239"><path
               inkscape:connector-curvature="0"
               style="fill:#ff4f19"
               d="m 256.001,512.002 c -4.422,0 -8,-3.582 -8,-8 l 0,-192 c 0,-4.418 3.578,-8 8,-8 4.422,0 8,3.582 8,8 l 0,192 c 0,4.418 -3.578,8 -8,8 z"
               id="path4241" /></g></g><g
           id="g4243"><path
             inkscape:connector-curvature="0"
             style="fill:#ff4f19"
             d="m 251.884,1.143 c -2.288,1.374 -38.98,23.989 -63.071,70.859 l 134.376,0 C 299.098,25.132 262.406,2.516 260.118,1.143 c -2.531,-1.524 -5.703,-1.524 -8.234,0 z"
             id="path4245" /></g><g
           id="g4247"><path
             inkscape:connector-curvature="0"
             style="fill:#e9001e"
             d="m 256.001,0 c -1.426,0 -2.852,0.381 -4.117,1.143 -2.288,1.374 -38.98,23.989 -63.071,70.859 l 67.188,0 0,-72.002 z"
             id="path4249" /></g><g
           id="g4251"><path
             inkscape:connector-curvature="0"
             style="fill:#b3f4ff"
             d="m 304.001,168.002 c 0,-26.51 -21.49,-48 -48,-48 l 0,96 c 26.51,0 48,-21.49 48,-48 z"
             id="path4253" /></g></g><g
         id="g4255"><g
           id="g4257"><path
             inkscape:connector-curvature="0"
             style="fill:#5c546a"
             d="m 256.001,224.002 c -30.875,0 -56,-25.121 -56,-56 0,-30.879 25.125,-56 56,-56 30.875,0 56,25.121 56,56 0,30.879 -25.125,56 -56,56 z m 0,-96 c -22.055,0 -40,17.945 -40,40 0,22.055 17.945,40 40,40 22.055,0 40,-17.945 40,-40 0,-22.055 -17.945,-40 -40,-40 z"
             id="path4259" /></g></g></g><g
       id="g4291"
       transform="matrix(0.20991626,0,0,0.20991626,119.45018,47.108672)"><g
         id="g4293"><g
           id="g4295"><path
             id="path4297"
             d="m 317.024,306.849 c 0.352,-3.383 2.797,-6.18 6.109,-6.965 3.305,-0.781 6.758,0.602 8.594,3.469 l 49.016,76.629 c 7.367,11.57 11.258,24.937 11.258,38.656 l 0,85.363 c 0,3.383 -2.125,6.398 -5.312,7.535 -0.875,0.312 -1.789,0.465 -2.688,0.465 -2.352,0 -4.641,-1.039 -6.195,-2.934 l -70.32,-85.949 c -1.344,-1.648 -1.977,-3.766 -1.766,-5.883 l 11.304,-110.386 z"
             style="fill:#ff4f19"
             inkscape:connector-curvature="0" /></g><g
           id="g4299"><path
             id="path4301"
             d="m 194.977,306.849 c -0.352,-3.383 -2.797,-6.18 -6.109,-6.965 -3.305,-0.781 -6.758,0.602 -8.594,3.469 l -49.016,76.629 C 123.891,391.552 120,404.919 120,418.638 l 0,85.363 c 0,3.383 2.125,6.398 5.312,7.535 0.875,0.312 1.789,0.465 2.688,0.465 2.352,0 4.641,-1.039 6.195,-2.934 l 70.32,-85.949 c 1.344,-1.648 1.977,-3.766 1.766,-5.883 L 194.977,306.849 Z"
             style="fill:#e9001e"
             inkscape:connector-curvature="0" /></g><g
           id="g4303"><path
             id="path4305"
             d="m 260.118,1.143 c -2.531,-1.523 -5.703,-1.523 -8.234,0 -3.422,2.055 -83.883,51.562 -83.883,158.859 0,43.324 10.766,158.594 25.047,268.125 2.07,15.891 15.703,27.875 31.695,27.875 l 62.516,0 c 15.992,0 29.625,-11.984 31.695,-27.875 C 333.235,318.596 344.001,203.326 344.001,160.002 344.001,52.705 263.54,3.197 260.118,1.143 Z"
             style="fill:#ffd200"
             inkscape:connector-curvature="0" /></g><g
           id="g4307"><path
             id="path4309"
             d="m 256.001,456.002 -31.258,0 c -15.992,0 -29.625,-11.984 -31.695,-27.875 -14.281,-109.531 -25.047,-224.801 -25.047,-268.125 0,-107.297 80.461,-156.805 83.883,-158.859 1.261,-0.759 2.682,-1.138 4.103,-1.141 l 0.015,0 0,456 z"
             style="fill:#ff9600"
             inkscape:connector-curvature="0" /></g><g
           id="g4311"><circle
             id="circle4313"
             r="48"
             cy="168.002"
             cx="256.00101"
             style="fill:#53dcff" /></g><g
           id="g4315"><g
             id="g4317"><path
               id="path4319"
               d="m 256.001,512.002 c -4.422,0 -8,-3.582 -8,-8 l 0,-192 c 0,-4.418 3.578,-8 8,-8 4.422,0 8,3.582 8,8 l 0,192 c 0,4.418 -3.578,8 -8,8 z"
               style="fill:#ff4f19"
               inkscape:connector-curvature="0" /></g></g><g
           id="g4321"><path
             id="path4323"
             d="m 251.884,1.143 c -2.288,1.374 -38.98,23.989 -63.071,70.859 l 134.376,0 C 299.098,25.132 262.406,2.516 260.118,1.143 c -2.531,-1.524 -5.703,-1.524 -8.234,0 z"
             style="fill:#ff4f19"
             inkscape:connector-curvature="0" /></g><g
           id="g4325"><path
             id="path4327"
             d="m 256.001,0 c -1.426,0 -2.852,0.381 -4.117,1.143 -2.288,1.374 -38.98,23.989 -63.071,70.859 l 67.188,0 0,-72.002 z"
             style="fill:#e9001e"
             inkscape:connector-curvature="0" /></g><g
           id="g4329"><path
             id="path4331"
             d="m 304.001,168.002 c 0,-26.51 -21.49,-48 -48,-48 l 0,96 c 26.51,0 48,-21.49 48,-48 z"
             style="fill:#b3f4ff"
             inkscape:connector-curvature="0" /></g></g><g
         id="g4333"><g
           id="g4335"><path
             id="path4337"
             d="m 256.001,224.002 c -30.875,0 -56,-25.121 -56,-56 0,-30.879 25.125,-56 56,-56 30.875,0 56,25.121 56,56 0,30.879 -25.125,56 -56,56 z m 0,-96 c -22.055,0 -40,17.945 -40,40 0,22.055 17.945,40 40,40 22.055,0 40,-17.945 40,-40 0,-22.055 -17.945,-40 -40,-40 z"
             style="fill:#5c546a"
             inkscape:connector-curvature="0" /></g></g></g><g
       transform="matrix(0.39062347,0,0,0.39062347,3.0569365,-1.8320312e-5)"
       id="g3"><g
         id="g5"><g
           id="g7"><path
             inkscape:connector-curvature="0"
             id="path9"
             d="m 317.024,306.849 c 0.352,-3.383 2.797,-6.18 6.109,-6.965 3.305,-0.781 6.758,0.602 8.594,3.469 l 49.016,76.629 c 7.367,11.57 11.258,24.937 11.258,38.656 l 0,85.363 c 0,3.383 -2.125,6.398 -5.312,7.535 -0.875,0.312 -1.789,0.465 -2.688,0.465 -2.352,0 -4.641,-1.039 -6.195,-2.934 l -70.32,-85.949 c -1.344,-1.648 -1.977,-3.766 -1.766,-5.883 l 11.304,-110.386 z"
             style="fill:#ff4f19" /></g><g
           id="g11"><path
             inkscape:connector-curvature="0"
             id="path13"
             d="m 194.977,306.849 c -0.352,-3.383 -2.797,-6.18 -6.109,-6.965 -3.305,-0.781 -6.758,0.602 -8.594,3.469 l -49.016,76.629 C 123.891,391.552 120,404.919 120,418.638 l 0,85.363 c 0,3.383 2.125,6.398 5.312,7.535 0.875,0.312 1.789,0.465 2.688,0.465 2.352,0 4.641,-1.039 6.195,-2.934 l 70.32,-85.949 c 1.344,-1.648 1.977,-3.766 1.766,-5.883 L 194.977,306.849 Z"
             style="fill:#e9001e" /></g><g
           id="g15"><path
             inkscape:connector-curvature="0"
             id="path17"
             d="m 260.118,1.143 c -2.531,-1.523 -5.703,-1.523 -8.234,0 -3.422,2.055 -83.883,51.562 -83.883,158.859 0,43.324 10.766,158.594 25.047,268.125 2.07,15.891 15.703,27.875 31.695,27.875 l 62.516,0 c 15.992,0 29.625,-11.984 31.695,-27.875 C 333.235,318.596 344.001,203.326 344.001,160.002 344.001,52.705 263.54,3.197 260.118,1.143 Z"
             style="fill:#ffd200" /></g><g
           id="g19"><path
             inkscape:connector-curvature="0"
             id="path21"
             d="m 256.001,456.002 -31.258,0 c -15.992,0 -29.625,-11.984 -31.695,-27.875 -14.281,-109.531 -25.047,-224.801 -25.047,-268.125 0,-107.297 80.461,-156.805 83.883,-158.859 1.261,-0.759 2.682,-1.138 4.103,-1.141 l 0.015,0 0,456 z"
             style="fill:#ff9600" /></g><g
           id="g23"><circle
             id="circle25"
             r="48"
             cy="168.002"
             cx="256.00101"
             style="fill:#53dcff" /></g><g
           id="g27"><g
             id="g29"><path
               inkscape:connector-curvature="0"
               id="path31"
               d="m 256.001,512.002 c -4.422,0 -8,-3.582 -8,-8 l 0,-192 c 0,-4.418 3.578,-8 8,-8 4.422,0 8,3.582 8,8 l 0,192 c 0,4.418 -3.578,8 -8,8 z"
               style="fill:#ff4f19" /></g></g><g
           id="g33"><path
             inkscape:connector-curvature="0"
             id="path35"
             d="m 251.884,1.143 c -2.288,1.374 -38.98,23.989 -63.071,70.859 l 134.376,0 C 299.098,25.132 262.406,2.516 260.118,1.143 c -2.531,-1.524 -5.703,-1.524 -8.234,0 z"
             style="fill:#ff4f19" /></g><g
           id="g37"><path
             inkscape:connector-curvature="0"
             id="path39"
             d="m 256.001,0 c -1.426,0 -2.852,0.381 -4.117,1.143 -2.288,1.374 -38.98,23.989 -63.071,70.859 l 67.188,0 0,-72.002 z"
             style="fill:#e9001e" /></g><g
           id="g41"><path
             inkscape:connector-curvature="0"
             id="path43"
             d="m 304.001,168.002 c 0,-26.51 -21.49,-48 -48,-48 l 0,96 c 26.51,0 48,-21.49 48,-48 z"
             style="fill:#b3f4ff" /></g></g><g
         id="g45"><g
           id="g47"><path
             inkscape:connector-curvature="0"
             id="path49"
             d="m 256.001,224.002 c -30.875,0 -56,-25.121 -56,-56 0,-30.879 25.125,-56 56,-56 30.875,0 56,25.121 56,56 0,30.879 -25.125,56 -56,56 z m 0,-96 c -22.055,0 -40,17.945 -40,40 0,22.055 17.945,40 40,40 22.055,0 40,-17.945 40,-40 0,-22.055 -17.945,-40 -40,-40 z"
             style="fill:#5c546a" /></g></g></g></g></svg>