<svg xmlns="http://www.w3.org/2000/svg" viewBox="0 0 199.99999 199.99999" width="200" height="200"><path d="M42.998 111.521a1.68 1.68 0 0 1 3.086-.734l10.29 16.086a15.083 15.083 0 0 1 2.363 8.115v17.919a1.679 1.679 0 0 1-2.98 1.063l-14.761-18.042a1.69 1.69 0 0 1-.37-1.235l2.372-23.172z" fill="#ff4f19"/><path d="M17.378 111.521a1.68 1.68 0 0 0-3.086-.734l-10.29 16.086a15.083 15.083 0 0 0-2.363 8.115v17.919a1.679 1.679 0 0 0 2.98 1.063l14.762-18.042a1.69 1.69 0 0 0 .37-1.235l-2.373-23.172z" fill="#e9001e"/><path d="M31.053 47.349a1.677 1.677 0 0 0-1.729 0c-.718.431-17.608 10.823-17.608 33.347 0 9.094 2.26 33.291 5.257 56.283.435 3.336 3.297 5.852 6.654 5.852H36.75c3.357 0 6.219-2.516 6.653-5.852 2.998-22.992 5.258-47.189 5.258-56.283 0-22.524-16.89-32.916-17.608-33.347z" fill="#ffd200"/><path d="M30.188 142.83h-6.561c-3.357 0-6.22-2.515-6.654-5.85-2.997-22.993-5.257-47.19-5.257-56.284 0-22.524 16.89-32.916 17.608-33.347.265-.16.563-.24.861-.24h.003v95.722z" fill="#ff9600"/><circle cx="256.001" cy="168.002" r="48" fill="#53dcff" transform="translate(-23.55 47.109) scale(.20992)"/><path d="M30.19 154.588c-.929 0-1.68-.751-1.68-1.679v-40.305a1.679 1.679 0 1 1 3.36 0v40.305a1.68 1.68 0 0 1-1.68 1.68zm-.865-107.239c-.48.288-8.182 5.036-13.24 14.875h28.209c-5.057-9.84-12.76-14.587-13.24-14.875a1.676 1.676 0 0 0-1.729 0z" fill="#ff4f19"/><path d="M30.19 47.109c-.3 0-.599.08-.865.24-.48.288-8.182 5.036-13.24 14.875H30.19V47.109z" fill="#e9001e"/><path d="M40.266 82.376c0-5.565-4.511-10.076-10.076-10.076v20.152c5.565 0 10.076-4.511 10.076-10.076z" fill="#b3f4ff"/><path d="M30.19 94.131c-6.482 0-11.756-5.273-11.756-11.755 0-6.482 5.274-11.756 11.756-11.756 6.481 0 11.755 5.274 11.755 11.756S36.671 94.131 30.19 94.131zm0-20.152c-4.63 0-8.397 3.767-8.397 8.397 0 4.63 3.767 8.397 8.397 8.397 4.63 0 8.397-3.767 8.397-8.397 0-4.63-3.767-8.397-8.397-8.397z" fill="#5c546a"/><path d="M182.622 111.521a1.68 1.68 0 0 1 3.086-.734l10.29 16.086a15.083 15.083 0 0 1 2.363 8.115v17.919a1.679 1.679 0 0 1-2.98 1.063l-14.762-18.042a1.69 1.69 0 0 1-.37-1.235l2.373-23.172z" fill="#ff4f19"/><path d="M157.002 111.521a1.68 1.68 0 0 0-3.086-.734l-10.29 16.086a15.083 15.083 0 0 0-2.363 8.115v17.919a1.679 1.679 0 0 0 2.98 1.063l14.761-18.042a1.69 1.69 0 0 0 .37-1.235l-2.372-23.172z" fill="#e9001e"/><path d="M170.676 47.349a1.677 1.677 0 0 0-1.728 0c-.719.431-17.609 10.823-17.609 33.347 0 9.094 2.26 33.291 5.258 56.283.435 3.336 3.296 5.852 6.653 5.852h13.123c3.357 0 6.22-2.516 6.654-5.852 2.998-22.992 5.258-47.189 5.258-56.283 0-22.524-16.89-32.916-17.609-33.347z" fill="#ffd200"/><path d="M169.812 142.83h-6.562c-3.357 0-6.218-2.515-6.653-5.85-2.998-22.993-5.258-47.19-5.258-56.284 0-22.524 16.89-32.916 17.609-33.347.264-.16.563-.24.861-.24h.003v95.722z" fill="#ff9600"/><circle r="48" cy="168.002" cx="256.001" fill="#53dcff" transform="translate(116.073 47.109) scale(.20992)"/><path d="M169.813 154.588c-.929 0-1.68-.751-1.68-1.679v-40.305a1.679 1.679 0 1 1 3.36 0v40.305a1.68 1.68 0 0 1-1.68 1.68zm-.865-107.239c-.48.288-8.182 5.036-13.24 14.875h28.209c-5.057-9.84-12.76-14.587-13.24-14.875a1.676 1.676 0 0 0-1.729 0z" fill="#ff4f19"/><path d="M169.813 47.109c-.3 0-.599.08-.865.24-.48.288-8.182 5.036-13.24 14.875h14.105V47.109z" fill="#e9001e"/><path d="M179.889 82.376c0-5.565-4.511-10.076-10.076-10.076v20.152c5.565 0 10.076-4.511 10.076-10.076z" fill="#b3f4ff"/><path d="M169.813 94.131c-6.482 0-11.756-5.273-11.756-11.755 0-6.482 5.274-11.756 11.756-11.756 6.481 0 11.755 5.274 11.755 11.756s-5.274 11.755-11.755 11.755zm0-20.152c-4.63 0-8.397 3.767-8.397 8.397 0 4.63 3.767 8.397 8.397 8.397 4.63 0 8.397-3.767 8.397-8.397 0-4.63-3.767-8.397-8.397-8.397z" fill="#5c546a"/><g><path d="M123.517 119.862a3.126 3.126 0 0 1 5.743-1.365l19.147 29.933a28.067 28.067 0 0 1 4.398 15.1v33.345a3.124 3.124 0 0 1-5.545 1.979l-27.47-33.574a3.144 3.144 0 0 1-.69-2.298l4.416-43.12z" fill="#ff4f19"/><path d="M75.842 119.862a3.126 3.126 0 0 0-5.743-1.365L50.952 148.43a28.067 28.067 0 0 0-4.397 15.1v33.345a3.124 3.124 0 0 0 5.545 1.979l27.468-33.574a3.144 3.144 0 0 0 .69-2.298l-4.416-43.12z" fill="#e9001e"/><path d="M101.288.446a3.121 3.121 0 0 0-3.216 0c-1.337.803-32.767 20.142-32.767 62.055 0 16.923 4.205 61.95 9.784 104.735.809 6.208 6.134 10.89 12.38 10.89h24.421c6.247 0 11.572-4.682 12.38-10.89 5.58-42.785 9.785-87.812 9.785-104.735 0-41.913-31.43-61.252-32.767-62.055z" fill="#ffd200"/><path d="M99.68 178.125H87.47c-6.247 0-11.572-4.681-12.381-10.889-5.579-42.785-9.784-87.812-9.784-104.735 0-41.913 31.43-61.252 32.767-62.055a3.118 3.118 0 0 1 1.602-.445h.006v178.124z" fill="#ff9600"/><circle r="48" cy="168.002" cx="256.001" fill="#53dcff" transform="translate(-.32) scale(.39062)"/><path d="M99.68 199.998a3.124 3.124 0 0 1-3.126-3.125v-74.999a3.124 3.124 0 1 1 6.25 0v75a3.124 3.124 0 0 1-3.125 3.124zM98.07.446c-.893.537-15.225 9.371-24.636 27.68h52.49C116.514 9.816 102.181.982 101.287.445a3.12 3.12 0 0 0-3.216 0z" fill="#ff4f19"/><path d="M99.68 0c-.558 0-1.115.149-1.61.446-.893.537-15.225 9.371-24.636 27.68H99.68V0z" fill="#e9001e"/><path d="M118.429 65.625c0-10.355-8.395-18.75-18.75-18.75v37.5c10.355 0 18.75-8.395 18.75-18.75z" fill="#b3f4ff"/><path d="M99.68 87.5c-12.061 0-21.876-9.813-21.876-21.875S87.62 43.75 99.68 43.75s21.875 9.813 21.875 21.875S111.74 87.5 99.679 87.5zm0-37.5c-8.616 0-15.626 7.01-15.626 15.625S91.064 81.25 99.68 81.25s15.625-7.01 15.625-15.625S108.294 50 99.679 50z" fill="#5c546a"/></g></svg>